<svg xmlns="http://www.w3.org/2000/svg" width="244" height="60" viewBox="0 0 244 60">
<!-- SVG created with Arrow, by QuiverAI (https://quiver.ai) -->
  <path d="m243.9 0h-243.8v59.91h243.8v-59.91z" fill="#E6E7E8"/>
  <path d="m3.51 12.08c0-0.39 0.26-0.61 0.65-0.61h4c0.39 0 0.61 0.22 0.61 0.61v1.24c1.28-1.54 2.99-2.27 5.34-2.27 2.91 0 4.81 0.99 5.92 2.94 1.58-1.95 3.53-2.94 6.16-2.94 5.43 0 6.57 4.13 6.57 8.37v10.63c0 0.39-0.25 0.61-0.64 0.61h-3.96c-0.39 0-0.65-0.22-0.65-0.61v-9.73c0-2.74-0.99-4.2-3.12-4.2-2.08 0-3.54 1.5-3.54 4.89v9.04c0 0.39-0.25 0.61-0.64 0.61h-3.92c-0.39 0-0.64-0.22-0.64-0.61v-9.77c0-2.66-1-4.16-3.12-4.16-2.17 0-3.67 1.5-3.67 4.89v9.04c0 0.39-0.26 0.61-0.65 0.61h-4.05c-0.39 0-0.65-0.22-0.65-0.61v-17.97z" fill="#152F4D"/>
  <path d="m34.67 12.21c-0.22-0.47-0.05-0.74 0.47-0.74h4.37c0.35 0 0.6 0.14 0.73 0.48l4.77 11.97 4.68-11.97c0.13-0.34 0.39-0.48 0.73-0.48h4.2c0.51 0 0.73 0.27 0.51 0.74l-8.14 19.4c-1.91 4.54-3.86 6-9.42 6-0.51 0-0.68-0.26-0.68-0.73v-3.26c0-0.39 0.21-0.61 0.64-0.61 2.4 0 3.39-0.6 4.29-2.95l-7.15-17.85z" fill="#152F4D"/>
  <path d="m56.03 21.06c0-6.22 4.28-10.01 9.09-10.01 2.63 0 4.58 0.86 5.86 2.36v-8.73c0-0.39 0.25-0.61 0.64-0.61h4c0.39 0 0.65 0.22 0.65 0.61v25.37c0 0.39-0.3 0.61-0.69 0.61h-3.7c-0.39 0-0.65-0.22-0.65-0.61v-1.42c-1.45 1.68-3.44 2.45-5.98 2.45-5.34 0-9.22-4-9.22-10.02zm10.03 5.08c3.22 0 4.93-2.43 4.93-5.21 0-2.91-1.95-4.9-4.89-4.9-2.99 0-4.79 2.3-4.79 5.03 0 2.87 1.91 5.08 4.75 5.08z" fill="#152F4D"/>
  <path d="m79.21 21.15c0-5.84 3.92-10.1 9.85-10.1 5.84 0 9.68 4.3 9.68 10.18v0.99c0 0.39-0.26 0.65-0.65 0.65h-13.46c0.51 2.64 2.33 3.75 4.73 3.75 1.95 0 3.32-0.47 4.47-1.71 0.3-0.25 0.6-0.3 0.9-0.08l2.95 1.9c0.34 0.26 0.34 0.6 0.04 0.9-2.12 2.35-4.98 3.45-8.28 3.45-6.13 0-10.23-4.13-10.23-9.93zm14.5-1.99c-0.8-2.59-2.62-3.49-4.57-3.49-2.22 0-3.8 1.11-4.48 3.49h9.05z" fill="#152F4D"/>
  <path d="m101.7 12.08c0-0.39 0.26-0.61 0.65-0.61h4c0.39 0 0.61 0.22 0.61 0.61v1.24c1.28-1.54 2.99-2.27 5.34-2.27 2.91 0 4.81 0.99 5.92 2.94 1.58-1.95 3.53-2.94 6.16-2.94 5.43 0 6.57 4.13 6.57 8.37v10.63c0 0.39-0.25 0.61-0.64 0.61h-3.96c-0.39 0-0.65-0.22-0.65-0.61v-9.73c0-2.74-0.99-4.2-3.12-4.2-2.08 0-3.54 1.5-3.54 4.89v9.04c0 0.39-0.25 0.61-0.64 0.61h-3.92c-0.39 0-0.64-0.22-0.64-0.61v-9.77c0-2.66-1-4.16-3.12-4.16-2.17 0-3.67 1.5-3.67 4.89v9.04c0 0.39-0.26 0.61-0.65 0.61h-4.05c-0.39 0-0.65-0.22-0.65-0.61v-17.97z" fill="#152F4D"/>
  <path d="m133 21.06c0-6.1 4.3-10.01 10.14-10.01s10.19 3.92 10.19 10.01c0 6.1-4.34 10.02-10.19 10.02-5.84 0-10.14-3.92-10.14-10.02zm10.14 5.08c2.95 0 5.03-2.13 5.03-5.17 0-3.09-2.08-5.09-5.03-5.09-2.9 0-4.94 1.99-4.94 5.09 0 3.04 2.04 5.17 4.94 5.17z" fill="#152F4D"/>
  <path d="m155.1 28.22c0-2.54 2.04-3.39 3.62-3.39s3.62 0.85 3.62 3.39c0 2.35-2.04 3.25-3.62 3.25s-3.62-0.9-3.62-3.25z" fill="#2A78E4"/>
  <path d="m163 21.11c0-6.18 4.43-10.05 9.99-10.05 3.83 0 6.55 1.46 8.37 4.13 0.26 0.35 0.21 0.74-0.18 0.99l-2.82 1.99c-0.43 0.3-0.9 0.04-1.2-0.35-1.02-1.24-2.17-1.8-3.79-1.8-3.09 0-4.91 2.3-4.91 5.04 0 2.82 1.82 5.08 4.91 5.08 1.62 0 2.77-0.56 3.79-1.8 0.3-0.39 0.77-0.65 1.2-0.35l2.82 1.99c0.39 0.26 0.44 0.65 0.18 0.99-1.82 2.67-4.54 4.12-8.37 4.12-5.56-0.01-9.99-3.8-9.99-9.98z" fill="#2A78E4"/>
  <path d="m184.2 4.68c0-0.39 0.26-0.61 0.65-0.61h4c0.39 0 0.65 0.22 0.65 0.61v25.37c0 0.39-0.26 0.61-0.65 0.61h-4c-0.39 0-0.65-0.22-0.65-0.61v-25.37z" fill="#2A78E4"/>
  <path d="m192.4 6.22c0-2.54 1.71-3.39 3.29-3.39 1.67 0 3.25 0.85 3.25 3.39 0 2.35-1.58 3.25-3.25 3.25-1.58 0-3.29-0.9-3.29-3.25zm0.52 5.86c0-0.39 0.26-0.61 0.65-0.61h4.04c0.39 0 0.65 0.22 0.65 0.61v17.97c0 0.39-0.26 0.61-0.65 0.61h-4.04c-0.39 0-0.65-0.22-0.65-0.61v-17.97z" fill="#2A78E4"/>
  <path d="m200.7 21.11c0-6.18 4.43-10.05 9.99-10.05 3.83 0 6.55 1.46 8.37 4.13 0.26 0.35 0.21 0.74-0.18 0.99l-2.82 1.99c-0.43 0.3-0.9 0.04-1.2-0.35-1.02-1.24-2.17-1.8-3.79-1.8-3.09 0-4.91 2.3-4.91 5.04 0 2.82 1.82 5.08 4.91 5.08 1.62 0 2.77-0.56 3.79-1.8 0.3-0.39 0.77-0.65 1.2-0.35l2.82 1.99c0.39 0.26 0.44 0.65 0.18 0.99-1.82 2.67-4.54 4.12-8.37 4.12-5.56-0.01-9.99-3.8-9.99-9.98z" fill="#2A78E4"/>
  <path d="m222.2 4.68c0-0.39 0.26-0.61 0.65-0.61h4c0.39 0 0.65 0.22 0.65 0.61v14.39l6.83-7.29c0.26-0.26 0.51-0.31 0.86-0.31h4.64c0.6 0 0.82 0.56 0.39 1.08l-7.24 7.98 7.94 9.12c0.43 0.52 0.21 1.03-0.43 1.03h-4.58c-0.39 0-0.65-0.09-0.95-0.52l-5.34-6.74-2.13 2.39v4.25c0 0.39-0.26 0.61-0.65 0.61h-4c-0.39 0-0.65-0.22-0.65-0.61v-25.38h0.01z" fill="#2A78E4"/>
  <path d="m172.4 42.39-22.23-13.12c-1.36-0.8-2.99 0.58-2.45 2.09l6.86 23.8c0.19 0.55 0.75 0.58 1 0.07l3.41-6.67 7.31 8.18c0.3 0.34 0.73 0.34 1.03 0.04l2.81-2.76c0.3-0.3 0.3-0.73 0-1.03l-6.6-7.28 8.76-2.1c0.56-0.15 0.64-0.88 0.1-1.22z" fill="#152F4D"/>
  <path d="m147.9 30.67c2.91 0 3.88-2.09 3.88-3.8 0-1.97-1.54-3.79-4.01-3.79-2.17 0-3.71 1.54-3.71 3.75 0 2.08 1.58 3.84 3.84 3.84z" fill="#F2F2F2"/>
</svg>